<svg width="31" height="31" viewBox="0 0 31 31" fill="none" xmlns="http://www.w3.org/2000/svg">
<g clip-path="url(#clip0_128_579)">
<path d="M31 9.20623C30.9219 8.85106 30.929 8.48877 30.8083 8.1407C30.1266 6.18721 28.2308 4.82333 26.1575 4.81622C25.1422 4.81622 24.1198 4.81622 23.1044 4.81622C22.5222 4.81622 21.9329 4.80912 21.3506 4.81622C21.1163 4.82333 21.024 4.72388 21.0311 4.49656C21.0453 4.18401 21.0311 3.87145 21.0311 3.55889C21.0453 2.94088 20.9459 2.34418 20.6477 1.80431C20.101 0.802704 19.327 0.106554 18.1271 0.0284143C18.12 0.0284143 18.1129 0.0284143 18.0987 0.0284143C18.0916 0.0284143 18.0845 0.0284143 18.0774 0.0284143C17.9851 0.0284143 17.8857 0.0568286 17.7934 0H13.1924C13.1001 0.0639322 12.9935 0.00710358 12.9012 0.0426215C12.8941 0.0426215 12.887 0.049725 12.8799 0.049725C11.6516 0.177589 10.5013 1.1934 10.1676 2.45073C9.97591 3.1753 10.0611 3.91407 10.054 4.64574C10.054 4.85885 10.0043 4.90857 9.7913 4.90857C8.15823 4.90147 6.52516 4.89436 4.88498 4.90147C2.13006 4.92278 0.0141623 7.04675 0.00706195 9.81004C-3.83728e-05 14.47 0.00706195 19.137 0.00706195 23.8041C0.00706195 24.3653 0.0851655 24.9122 0.276874 25.4379C0.994007 27.4553 2.78329 28.7055 4.95599 28.7127C8.27894 28.7198 11.5948 28.7127 14.9177 28.7127C15.0455 28.7127 15.1804 28.7055 15.3083 28.6842C15.8834 28.5706 16.2881 28.0804 16.2952 27.505C16.2952 26.9439 15.9118 26.4537 15.3509 26.3258C15.1946 26.2903 15.0313 26.2903 14.868 26.2903C11.5806 26.2903 8.29314 26.2903 4.99859 26.2903C3.50752 26.2903 2.44247 25.2745 2.43537 23.8183C2.42117 20.8419 2.43537 17.8655 2.42827 14.882C2.42827 14.7257 2.44957 14.6547 2.63418 14.6547C6.46835 14.6618 10.3025 14.6618 14.1367 14.6547C14.3426 14.6547 14.3639 14.7257 14.3568 14.8962C14.3497 15.3934 14.3497 15.8836 14.3568 16.3808C14.3639 17.148 14.868 17.6879 15.571 17.6808C16.2668 17.6808 16.7709 17.1338 16.778 16.3666C16.7851 15.8694 16.7851 15.3792 16.7709 14.882C16.7638 14.6973 16.8135 14.6476 17.0052 14.6476C20.7897 14.6547 24.5742 14.6547 28.3586 14.6476C28.5575 14.6476 28.593 14.7044 28.5859 14.8891C28.5788 15.6563 28.5717 16.4235 28.5859 17.1907C28.6001 17.8087 29.0829 18.2917 29.7006 18.3414C30.2899 18.3912 30.8154 17.9934 30.9503 17.3896C30.9503 17.3824 30.9574 17.3753 30.9574 17.3682C30.9929 17.2688 30.9716 17.1622 30.9716 17.0557C30.9716 14.6902 30.9716 12.3176 30.9716 9.94501C30.9716 9.83845 30.9432 9.72479 31 9.61824V9.20623ZM28.245 12.2395C23.999 12.2253 19.7531 12.2324 15.5071 12.2324C11.2469 12.2324 6.99378 12.2324 2.73358 12.2395C2.49217 12.2395 2.40697 12.1968 2.41407 11.934C2.43537 11.2165 2.40697 10.4991 2.42117 9.78162C2.44957 8.37511 3.47202 7.3593 4.87788 7.32379H4.93468C11.964 7.32379 18.9933 7.32379 26.0226 7.32379C27.0451 7.32379 27.819 7.76421 28.3018 8.68767C28.5007 9.06416 28.5575 9.46907 28.5575 9.88818C28.5646 10.5559 28.5433 11.2236 28.5646 11.8843C28.5859 12.1542 28.5361 12.2395 28.245 12.2395ZM13.448 2.42232C14.8183 2.42232 16.1887 2.41522 17.5591 2.42232C18.1342 2.42232 18.5034 2.7917 18.5176 3.35999C18.5247 3.80752 18.5105 4.24794 18.5247 4.68836C18.5318 4.86595 18.4679 4.90147 18.3046 4.90147C17.3673 4.89436 16.4301 4.90147 15.4929 4.90147C14.5769 4.90147 13.661 4.89436 12.7379 4.90857C12.5391 4.90857 12.4539 4.87305 12.4681 4.65284C12.4894 4.23373 12.4681 3.80752 12.4752 3.3813C12.4823 2.79881 12.8515 2.42232 13.448 2.42232Z" fill="#26ACE3"/>
<path d="M30.3611 28.6416C29.58 27.8744 28.8203 27.1001 28.0464 26.34C27.8973 26.1909 27.876 26.0843 27.9825 25.9138C28.4724 25.0898 28.6925 24.1806 28.6925 23.2287C28.6996 20.437 26.4914 18.0502 23.7081 17.8229C20.2289 17.5387 17.3888 20.5364 17.8574 23.9959C18.3686 27.7608 22.4868 29.8492 25.8311 28.0307C26.0725 27.9028 26.2003 27.8957 26.4062 28.1088C27.2156 28.9542 28.0464 29.7782 28.8842 30.5951C29.4877 31.1918 30.3469 31.1279 30.7942 30.4743C30.8794 30.3465 30.9362 30.1902 31.0072 30.0481V29.5651C30.8794 29.1886 30.6309 28.9115 30.3611 28.6416ZM20.2218 23.2571C20.2218 21.6091 21.5851 20.231 23.2324 20.231C24.8938 20.2239 26.2784 21.6162 26.2713 23.2642C26.2642 24.9051 24.8725 26.2832 23.2395 26.2832C21.5993 26.2832 20.2218 24.898 20.2218 23.2571Z" fill="#FEE41B"/>
</g>
<defs>
<clipPath id="clip0_128_579">
<rect width="31" height="31" fill="white"/>
</clipPath>
</defs>
</svg>
