<svg width="39" height="34" viewBox="0 0 39 34" fill="none" xmlns="http://www.w3.org/2000/svg">
<path d="M39 30.8986C39.0111 30.5755 38.8783 30.5217 38.5904 30.5324C37.5388 30.5432 36.4871 30.5324 35.4354 30.5217C35.4354 28.9601 35.4244 27.3984 35.4244 25.8368C35.4244 24.4906 35.4244 23.1444 35.4244 21.7982C35.4244 19.3212 35.4354 16.8549 35.4244 14.3779C35.4244 14.0117 35.3137 13.6563 35.0258 13.387C34.7712 12.9886 34.3506 12.8486 33.941 12.687C32.0812 11.9008 30.2104 11.1254 28.3395 10.35C26.7233 9.68226 25.1181 9.00377 23.5019 8.33604C23.3247 8.26065 23.048 8.02372 23.048 8.50836C23.0591 10.113 23.0591 11.707 23.0591 13.3117C23.0591 16.1441 23.0591 18.9658 23.0591 21.7982C23.0591 23.1444 23.0591 24.4906 23.0591 25.8368C23.0591 27.3877 23.048 28.9493 23.048 30.5001C21.8635 30.5647 20.679 30.5324 19.4834 30.5217C19.4834 28.9277 19.4723 27.3446 19.4723 25.7614C19.4723 24.3829 19.4723 23.0152 19.4723 21.6366C19.4723 17.9211 19.4723 14.2055 19.4723 10.49C19.4723 7.25907 19.4834 4.03893 19.4723 0.80801C19.4723 0.204905 18.8192 -0.161265 18.2546 0.0756688C17.7454 0.280293 17.2473 0.506458 16.738 0.721852C14.358 1.74498 11.9668 2.77887 9.58674 3.81276C7.94836 4.52356 6.29891 5.24513 4.64947 5.9667C3.99633 6.24672 3.60888 6.75289 3.57567 7.43139C3.53139 8.45451 3.57567 9.47763 3.57567 10.5008C3.57567 12.267 3.5646 14.044 3.5646 15.8102C3.5646 17.7595 3.57567 19.6981 3.57567 21.6474C3.57567 23.0259 3.57567 24.3937 3.57567 25.7722C3.57567 27.3661 3.5646 28.9493 3.5646 30.5324C2.51294 30.5432 1.46128 30.554 0.409616 30.5432C0.0664423 30.5324 -0.0110485 30.6509 2.16287e-05 30.9524C0.0221619 31.8033 0.0110917 32.6433 2.16287e-05 33.4941C2.16287e-05 34.0003 2.16283e-05 34.011 0.542457 34.011H38.4576C38.5129 34.011 38.5683 34.0003 38.6236 34.011C38.9004 34.0541 39.0111 33.9464 39 33.6556C38.9889 32.7295 38.9779 31.814 39 30.8986Z" fill="#FFE600"/>
</svg>
