<svg width="32" height="36" viewBox="0 0 32 36" fill="none" xmlns="http://www.w3.org/2000/svg">
<path d="M24.8259 6.82725C24.2468 6.77803 23.9947 6.60928 23.7971 5.99756C22.5299 2.1374 18.8987 -0.302441 15.0426 0.0280279C10.9072 0.37959 7.73241 3.45928 7.13288 7.60772C7.06475 8.07178 7.04431 8.53584 6.99662 9.021C4.8165 9.05615 2.99066 9.8999 1.59402 11.6226C0.503964 12.9655 -0.034252 14.5335 -0.000187717 16.2913C0.0406894 18.3796 0.830981 20.1304 2.33662 21.5226C3.84908 22.9147 5.6613 23.421 7.68472 23.3155C7.68472 24.2647 7.69153 25.1788 7.67109 26.0929C7.67109 26.1772 7.50758 26.2827 7.39858 26.339C6.17226 26.9296 5.44329 28.2444 5.57954 29.6296C5.72261 30.9444 6.67641 32.0835 7.93679 32.414C9.49694 32.8218 11.098 31.964 11.6566 30.4171C12.2153 28.8562 11.5817 27.1194 10.1305 26.3952C9.80352 26.2335 9.72857 26.0507 9.73539 25.7132C9.75583 24.9327 9.7422 24.1452 9.7422 23.3437H14.9745V23.6952C14.9745 25.5796 14.9677 27.471 14.9813 29.3554C14.9813 29.5804 14.9404 29.7069 14.7224 29.8054C13.428 30.4171 12.7262 31.7038 12.8829 33.1733C13.0192 34.4882 14.0139 35.5991 15.3219 35.9226C15.3969 35.9437 15.465 35.9718 15.5399 35.9999H16.4256C16.5687 35.9577 16.7049 35.9155 16.848 35.8733C18.1356 35.4937 19.0349 34.3616 19.1439 32.9976C19.2461 31.6687 18.5172 30.389 17.3249 29.8124C17.1682 29.7351 17.032 29.6999 17.032 29.4538C17.0456 27.464 17.0388 25.4741 17.0388 23.4772C17.0388 23.4421 17.0456 23.4069 17.0592 23.3437H22.2574V24.7007C22.2574 25.0874 22.2438 25.4741 22.2642 25.8608C22.271 26.0999 22.2029 26.2265 21.9781 26.3319C20.6905 26.9296 20.0024 28.2655 20.1795 29.7491C20.3362 31.0569 21.4058 32.203 22.7003 32.4562C24.2468 32.7585 25.7729 31.8233 26.2702 30.2694C26.7607 28.7437 26.0794 27.0491 24.6624 26.3671C24.3694 26.2265 24.3013 26.0647 24.3081 25.7624C24.3285 25.0382 24.3217 24.3069 24.3081 23.5827C24.3081 23.3577 24.3762 23.2874 24.5942 23.2663C28.4503 22.9288 31.4139 20.0108 31.9453 16.0452C32.5312 11.5593 29.1929 7.1999 24.8259 6.82725ZM9.81033 29.278C9.81033 29.8897 9.32662 30.396 8.7339 30.403C8.13437 30.4101 7.64384 29.9108 7.63021 29.2991C7.6234 28.6733 8.12755 28.146 8.72709 28.153C9.31299 28.153 9.80352 28.6663 9.81033 29.278ZM17.0865 32.7655C17.0797 33.3702 16.5823 33.8765 16.0032 33.8835C15.4037 33.8905 14.9063 33.3702 14.9063 32.7444C14.9132 32.1257 15.3832 31.6335 15.9828 31.6335C16.5891 31.6335 17.0933 32.1468 17.0865 32.7655ZM24.3626 29.278C24.3626 29.8897 23.8789 30.396 23.2794 30.403C22.6798 30.4101 22.1961 29.9249 22.1825 29.2991C22.1757 28.6663 22.673 28.146 23.2725 28.153C23.8584 28.153 24.3626 28.6733 24.3626 29.278Z" fill="#B0B0B0"/>
</svg>
