<svg width="33" height="30" viewBox="0 0 33 30" fill="none" xmlns="http://www.w3.org/2000/svg">
<path d="M32.3028 4.23308L32.2222 4.21489C31.6828 1.65563 29.6181 0 26.9335 0H24.5092C18.2098 0 11.6997 0 5.29493 0C2.33126 0.00606459 0.00620015 2.27422 0 5.17309C0 8.88462 0 12.6386 0 16.2652C0 18.8245 0 21.3837 0 23.943C0 24.3251 0.0372009 24.6707 0.105403 24.9922C0.644816 27.4544 2.72807 29.11 5.29493 29.11C7.30378 29.1161 9.34983 29.11 11.3277 29.11H11.9663C12.8901 29.11 13.8201 29.11 14.744 29.11C15.0168 29.11 15.2958 29.11 15.5748 29.11C15.9716 29.11 16.3746 29.11 16.7652 29.1039C17.4348 29.0979 17.999 28.7037 18.2098 28.0972C18.371 27.6363 18.2966 27.1512 18.0176 26.7691C17.7262 26.3688 17.2488 26.1384 16.7094 26.1384C14.9362 26.1384 13.1567 26.1384 11.3835 26.1384H11.0363C9.13902 26.1384 7.23558 26.1384 5.33833 26.1384C4.0115 26.1384 3.04427 25.2044 3.04427 23.9187C3.04427 17.7025 3.04427 11.3954 3.04427 5.17916C3.04427 3.92379 4.0115 2.97165 5.28873 2.97165C12.4933 2.97165 19.8033 2.97165 27.0141 2.97165C28.3099 2.97165 29.2585 3.89953 29.2647 5.17309C29.2709 5.71284 29.2647 6.26472 29.2647 6.79234C29.2647 7.02886 29.2647 7.26537 29.2647 7.50796C29.2647 7.92035 29.2647 8.33274 29.2647 8.7512V8.81791C29.2647 9.84889 29.2647 10.9163 29.2709 11.9654C29.2771 12.4809 29.5189 12.9358 29.9467 13.2147C30.3683 13.4937 30.8829 13.5422 31.3666 13.3542C31.844 13.1662 32.0858 12.7841 32.278 12.4021L32.309 12.3475V4.45747L32.3028 4.23308Z" fill="#26ACE3"/>
<path d="M28.9919 22.5118C29.5127 22.1115 30.0087 21.687 30.4861 21.2443C31.1929 20.5772 31.7448 19.8191 32.03 18.8973V17.2599C31.9308 17.2296 31.9742 17.1386 31.9556 17.084C31.6704 16.1258 30.8209 15.4526 29.8165 15.4466C27.4481 15.4344 25.0858 15.4344 22.7173 15.4466C21.7191 15.4526 20.7891 16.1319 20.5907 17.084C20.3737 18.1089 20.4047 19.1338 21.0247 20.0557C21.4649 20.7106 22.0229 21.2625 22.6243 21.7719C22.9839 22.0812 23.3498 22.3784 23.7218 22.6937C23.0708 23.2274 22.4507 23.7429 21.8741 24.313C20.9131 25.2712 20.3675 26.3628 20.4729 27.7637C20.5659 29.013 21.4897 29.9894 22.7731 29.9955C25.0982 30.0016 27.4233 30.0016 29.7483 29.9955C30.7527 29.9955 31.5774 29.3951 31.906 28.4672C31.937 28.3884 31.9184 28.2792 32.0238 28.2368V26.5387C31.72 25.5744 31.1433 24.786 30.3869 24.1129C29.9281 23.7065 29.4693 23.3063 28.9857 22.9242C28.7811 22.7544 28.7749 22.6756 28.9919 22.5118ZM29.2089 26.4174C29.4445 26.6903 29.5871 26.9814 29.5499 27.3574C29.5375 27.5272 29.5003 27.5757 29.3267 27.5697C28.5951 27.5575 27.8573 27.5636 27.1256 27.5636C25.8236 27.5636 24.5216 27.5575 23.2196 27.5697C23.0211 27.5697 22.9715 27.5212 22.9591 27.321C22.9405 26.9875 23.0521 26.7146 23.2568 26.4538C23.8396 25.726 24.5712 25.1438 25.2966 24.5556C25.7864 24.1614 26.115 23.6823 26.2514 23.0637C26.363 23.4336 26.4808 23.7975 26.7102 24.1129C26.952 24.4525 27.2993 24.6769 27.6093 24.9376C28.1673 25.4107 28.7377 25.8595 29.2089 26.4174ZM27.2807 20.7531C26.7908 21.1473 26.4436 21.6082 26.3134 22.2146C26.3072 22.251 26.2762 22.2753 26.2266 22.342C26.115 21.6992 25.805 21.214 25.3276 20.8259C24.72 20.3286 24.0876 19.8495 23.5482 19.2794C23.2134 18.9276 22.8971 18.5759 22.9653 18.0361C22.9839 17.8906 23.0211 17.8542 23.1638 17.8542C25.2284 17.8603 27.2931 17.8603 29.3577 17.8542C29.5003 17.8542 29.5375 17.8906 29.5499 18.0361C29.5871 18.4182 29.4569 18.7214 29.2151 19.0065C28.6509 19.6736 27.9565 20.2073 27.2807 20.7531Z" fill="#FEE41B"/>
<path d="M9.25674 8.39953C9.25674 9.19399 8.59333 9.83683 7.78731 9.8429C6.97509 9.8429 6.31787 9.19399 6.31787 8.39953C6.31787 7.60507 6.97509 6.96222 7.78731 6.96222C8.59333 6.96222 9.25674 7.60507 9.25674 8.39953Z" fill="#26ACE3"/>
<path d="M16.6351 8.4055C16.6289 9.19996 15.9654 9.84281 15.1532 9.83674C14.341 9.83068 13.6838 9.18177 13.69 8.38731C13.6962 7.59285 14.3596 6.95 15.1718 6.95607C15.9778 6.96213 16.6351 7.61711 16.6351 8.4055Z" fill="#26ACE3"/>
<path d="M24.4472 8.39953C24.4472 9.19399 23.7838 9.83683 22.9777 9.8429C22.1655 9.8429 21.5083 9.19399 21.5083 8.39953C21.5083 7.60507 22.1655 6.96222 22.9777 6.96222C23.7838 6.96222 24.4472 7.60507 24.4472 8.39953Z" fill="#26ACE3"/>
<path d="M15.1594 21.0137C15.1594 21.8082 14.496 22.451 13.6838 22.451C12.8716 22.451 12.2144 21.8021 12.2144 21.0076C12.2144 20.2132 12.8778 19.5703 13.69 19.5703C14.5022 19.5764 15.1594 20.2193 15.1594 21.0137Z" fill="#26ACE3"/>
<path d="M9.25684 21.0137C9.25684 21.8082 8.59342 22.451 7.7812 22.451C6.96898 22.451 6.31177 21.8021 6.31177 21.0076C6.31177 20.2132 6.97518 19.5703 7.7874 19.5703C8.59342 19.5764 9.25684 20.2193 9.25684 21.0137Z" fill="#26ACE3"/>
</svg>
