<svg width="31" height="31" viewBox="0 0 31 31" fill="none" xmlns="http://www.w3.org/2000/svg">
<g clip-path="url(#clip0_128_559)">
<path d="M18.5154 29.8791C18.5023 30.4787 18.0916 30.8045 17.5635 30.9935H14.4733C13.8931 30.8631 13.3194 30.7002 12.8304 30.3483C11.8264 29.6185 11.2983 28.6344 11.2657 27.3897C11.2592 27.1877 11.2983 26.9792 11.2527 26.7837C11.2201 26.6403 11.1093 26.4513 10.9854 26.3992C10.8615 26.3471 10.6399 26.3927 10.529 26.4839C10.2161 26.725 9.96184 27.0313 9.6489 27.2659C8.29286 28.263 6.36962 28.1652 5.13092 27.0183C4.64848 26.5751 4.16604 26.119 3.76836 25.6042C2.72524 24.2487 2.82956 22.3328 3.96394 21.062C4.12041 20.8861 4.28339 20.7231 4.44638 20.5602C4.59633 20.4103 4.71368 20.2539 4.62241 20.0258C4.53113 19.7912 4.34207 19.7326 4.11389 19.7391C3.40979 19.7652 2.72524 19.7065 2.07982 19.3807C0.769409 18.7095 0.0587885 17.6407 0.0131524 16.1745C-0.00640601 15.4446 -0.00640601 14.6887 0.143541 13.9783C0.469514 12.4404 1.91031 11.3195 3.48802 11.2609C3.72924 11.2544 3.97698 11.2869 4.21168 11.2413C4.35511 11.2153 4.54417 11.1045 4.59633 10.9807C4.64848 10.8568 4.60285 10.6353 4.5181 10.5245C4.28339 10.2117 3.97046 9.95753 3.73576 9.64473C2.73828 8.30228 2.83608 6.39289 3.95742 5.1482C4.34207 4.72461 4.7528 4.31406 5.17656 3.92957C6.50001 2.75005 8.58623 2.75656 9.9162 3.93609C10.1183 4.11856 10.2943 4.34012 10.5095 4.49001C10.6399 4.58124 10.8615 4.63989 10.9919 4.58776C11.1158 4.53562 11.2331 4.32709 11.2527 4.17069C11.3179 3.69497 11.2853 3.1997 11.3961 2.73701C11.7677 1.16648 13.1759 0.0390934 14.7928 0.00650983C15.6272 -0.0130403 16.4683 -0.0065236 17.3027 0.00650983C18.0134 0.0195433 18.5154 0.52133 18.5219 1.23817C18.5349 2.43724 18.5349 3.63632 18.5219 4.84191C18.5154 5.5392 17.9873 6.06054 17.3158 6.06054C16.6508 6.06054 16.1227 5.5392 16.1097 4.84191C16.0966 4.14462 16.1097 3.44733 16.1097 2.75656C16.1097 2.65881 16.1097 2.56106 16.1097 2.44376C15.6338 2.44376 15.1774 2.41118 14.7276 2.45028C14.1212 2.50893 13.6975 3.02375 13.6844 3.6689C13.6779 4.23586 13.6844 4.78978 13.4563 5.33066C12.7456 7.06411 10.4704 7.6441 9.02956 6.43851C8.82093 6.26255 8.63187 6.06705 8.43629 5.87807C7.87561 5.3437 7.19107 5.33718 6.6304 5.87155C6.36962 6.1257 6.10884 6.37985 5.8611 6.64052C5.32651 7.19444 5.34607 7.87218 5.8611 8.45217C6.20663 8.83665 6.5978 9.22766 6.81294 9.69034C7.64743 11.4694 6.37614 13.5482 4.41378 13.6786C4.15952 13.6981 3.91179 13.6851 3.65753 13.6916C2.94039 13.7112 2.43839 14.1999 2.41883 14.9167C2.40579 15.3077 2.41231 15.7053 2.41883 16.0963C2.43839 16.8066 2.94039 17.2823 3.65101 17.3279C4.19212 17.3605 4.75931 17.3605 5.25479 17.5365C7.08024 18.1947 7.65395 20.5342 6.3957 22.0069C6.21967 22.2155 6.01757 22.3979 5.83502 22.5999C5.34607 23.1343 5.34607 23.8121 5.84154 24.3399C6.08928 24.6071 6.35006 24.8547 6.61084 25.1089C7.19107 25.6758 7.86909 25.6563 8.46236 25.1154C8.84049 24.7765 9.22514 24.3986 9.67498 24.1835C11.4678 23.3429 13.5541 24.6266 13.6714 26.6077C13.6844 26.8619 13.6714 27.1095 13.6844 27.3637C13.7105 28.061 14.206 28.5562 14.8971 28.5758C15.2882 28.5888 15.6794 28.5758 16.1032 28.5758C16.1032 27.7677 16.0966 26.9792 16.1032 26.1972C16.1097 25.6237 16.4226 25.1806 16.9246 25.0111C17.6744 24.757 18.4893 25.2718 18.5154 26.0668C18.548 27.3376 18.5414 28.6084 18.5154 29.8791Z" fill="#26ACE3"/>
<path d="M11.3114 13.6264C10.0205 16.3504 11.859 19.6674 14.8449 20.0454C15.1318 20.0845 15.4251 20.0975 15.7185 20.1041C18.6262 20.1106 21.5339 20.1106 24.435 20.1041C24.924 20.1041 25.3086 20.2605 25.6476 20.6058C26.5082 21.4726 27.3818 22.3263 28.2554 23.1799C28.3467 23.2647 28.4966 23.3494 28.6075 23.3429C29.7745 23.2582 30.6481 23.8707 30.948 25.0046C30.961 25.0502 30.9806 25.0959 31.0001 25.1415V25.7475C30.8371 26.3797 30.5438 26.9271 29.9505 27.2659C28.5032 28.087 26.756 27.0704 26.7755 25.4087C26.7755 25.1936 26.7103 25.0568 26.5669 24.9134C25.8432 24.2096 25.1196 23.5058 24.4089 22.7889C24.2329 22.613 24.0569 22.5348 23.8026 22.5348C21.0905 22.5478 18.3719 22.5609 15.6598 22.5348C12.6413 22.5022 10.4378 21.1207 9.11431 18.4097C7.84954 15.8226 8.52756 12.4078 10.6464 10.4528C12.0676 9.13643 13.7431 8.49128 15.6729 8.4978C18.398 8.50431 21.1231 8.4978 23.8483 8.50431C24.0569 8.50431 24.2003 8.44566 24.3503 8.29578C25.1 7.53332 25.8628 6.7839 26.6125 6.02145C26.6908 5.93673 26.7625 5.80639 26.7625 5.68909C26.769 4.46395 27.4926 3.5842 28.6401 3.43431C29.7093 3.29094 30.6481 3.9752 30.9545 5.11562C30.9675 5.15472 30.9871 5.18731 31.0001 5.22641V5.83246C30.8241 6.51672 30.5112 7.10974 29.8331 7.39647C29.4811 7.54636 29.0769 7.55287 28.6987 7.63759C28.5553 7.67017 28.3793 7.69624 28.2815 7.78747C27.3949 8.6542 26.5147 9.52744 25.6411 10.4137C25.3021 10.7591 24.9175 10.9155 24.4285 10.9155C21.4948 10.9025 18.5545 10.8959 15.6207 10.9155C13.6323 10.9155 12.1654 11.8213 11.3114 13.6264Z" fill="#26ACE3"/>
<path d="M31.0001 15.197V15.803C30.8241 16.4873 30.4916 17.0477 29.8396 17.3801C28.9921 17.8167 27.962 17.6407 27.3297 16.9174C27.1993 16.7675 27.0689 16.7023 26.8668 16.7023C23.9135 16.7089 20.9536 16.7089 18.0003 16.7023C17.8047 16.7023 17.6678 16.7545 17.5374 16.9044C16.7877 17.7646 15.5229 17.8493 14.6298 17.1129C13.7822 16.4156 13.6192 15.1253 14.2777 14.2521C14.9883 13.3136 16.2335 13.1051 17.1789 13.7633C17.2506 13.8154 17.3549 13.8545 17.394 13.9262C17.6091 14.3172 17.9677 14.2912 18.3393 14.2846C21.1818 14.2781 24.0308 14.2846 26.8733 14.2716C27.0167 14.2716 27.1927 14.2064 27.284 14.1087C27.8577 13.4961 28.5423 13.242 29.3637 13.4375C30.1787 13.633 30.6937 14.1608 30.9284 14.9624C30.9545 15.0471 30.9805 15.1253 31.0001 15.197Z" fill="#FFEC00"/>
</g>
<defs>
<clipPath id="clip0_128_559">
<rect width="31" height="31" fill="white"/>
</clipPath>
</defs>
</svg>
