<svg width="31" height="31" viewBox="0 0 31 31" fill="none" xmlns="http://www.w3.org/2000/svg">
<g clip-path="url(#clip0_128_572)">
<path d="M24.3409 6.80048C24.3338 6.29546 23.9856 5.90113 23.4739 5.81119C23.1044 5.74201 22.7206 5.70742 22.3439 5.67975C22.0952 5.65899 21.9317 5.59673 21.8251 5.34076C21.7043 5.04328 21.5124 4.76656 21.3205 4.50367C21.1997 4.33072 21.1926 4.20619 21.285 4.0194C21.4485 3.70809 21.5835 3.38986 21.7185 3.06471C21.9531 2.49742 21.7967 1.97165 21.2637 1.66725C20.3753 1.14839 19.4799 0.650289 18.5773 0.159104C18.0301 -0.138374 17.4829 -0.00692986 17.0991 0.463501C16.8859 0.726389 16.6798 0.996194 16.4879 1.27984C16.36 1.47354 16.2178 1.53581 15.9833 1.51505C15.5498 1.48046 15.0381 1.63266 14.697 1.45971C14.3416 1.27292 14.1426 0.795569 13.8726 0.449665C13.6523 0.166023 13.3538 0.0138245 12.9274 0.00690636C12.7923 -1.17391e-05 12.6147 0.0414968 12.4512 0.13835C11.5344 0.650289 10.6106 1.15531 9.70798 1.688C9.19629 1.98548 9.04705 2.4905 9.26025 3.03011C9.37396 3.31376 9.48056 3.5974 9.62981 3.86029C9.78616 4.14393 9.81458 4.37223 9.58006 4.64203C9.38818 4.85649 9.26025 5.13322 9.13944 5.40302C9.05415 5.59673 8.92623 5.66591 8.72724 5.67975C8.32926 5.71434 7.92417 5.74893 7.52618 5.81811C7.00028 5.91496 6.65204 6.31621 6.64494 6.83507C6.63072 7.86587 6.63072 8.90358 6.64494 9.93438C6.65204 10.4532 7.00028 10.8545 7.52618 10.9513C7.88863 11.0205 8.25819 11.0551 8.62064 11.0759C8.88359 11.0897 9.06837 11.152 9.16076 11.4287C9.30289 11.8299 9.75773 12.1343 9.74352 12.5287C9.7293 12.923 9.42371 13.3035 9.25314 13.6978C9.02573 14.2513 9.18208 14.7701 9.69377 15.0676C10.5892 15.5934 11.4989 16.0984 12.4157 16.5965C12.9416 16.8801 13.4888 16.7556 13.8655 16.2921C14.0432 16.0707 14.2279 15.8493 14.3701 15.6141C14.5548 15.3167 14.768 15.1783 15.1447 15.2336C15.4503 15.2821 15.7701 15.2475 16.0757 15.2267C16.2392 15.2129 16.3315 15.2682 16.4168 15.3858C16.6229 15.6695 16.8361 15.9462 17.0493 16.2298C17.4615 16.7695 18.0088 16.894 18.5986 16.5758C19.4799 16.0915 20.354 15.6003 21.2282 15.0953C21.7754 14.777 21.9459 14.2513 21.7043 13.6771C21.5622 13.3381 21.4058 12.9991 21.2424 12.667C21.1784 12.5287 21.1926 12.4318 21.2779 12.3004C21.4769 12.0029 21.6759 11.6916 21.8251 11.3733C21.9246 11.1658 22.0597 11.1035 22.2658 11.0828C22.6566 11.0482 23.0475 11.0136 23.4313 10.9513C23.9643 10.8545 24.3196 10.4671 24.3267 9.94821C24.3552 8.88974 24.3552 7.84511 24.3409 6.80048ZM22.1449 8.70296C22.1449 8.90358 22.0597 8.94509 21.8891 8.95892C21.6261 8.97968 21.3632 9.01427 21.1002 9.04194C20.6312 9.09037 20.2972 9.31867 20.1408 9.75451C19.8992 10.4463 19.5367 11.0551 19.0464 11.6086C18.755 11.9337 18.7194 12.3142 18.8758 12.7085C18.9042 12.7846 18.9326 12.8538 18.9682 12.9299C19.3377 13.7601 19.3377 13.7532 18.4849 14.1683C18.357 14.2305 18.2859 14.2236 18.2078 14.106C18.0372 13.8639 17.8666 13.6286 17.6747 13.4003C17.3834 13.0475 17.0138 12.8953 16.5448 12.9922C15.8483 13.1305 15.1518 13.1305 14.4553 12.9853C13.9934 12.8884 13.6167 13.0337 13.3254 13.3934C13.1406 13.6217 12.9558 13.8569 12.7923 14.0991C12.7 14.2374 12.6147 14.2374 12.4868 14.1544C12.238 13.9953 11.8614 13.9123 11.7476 13.6909C11.6339 13.4626 11.9111 13.1651 12.0319 12.9092C12.2949 12.3695 12.238 11.8991 11.8187 11.4564C11.4065 11.0205 11.1009 10.5224 10.9233 9.95513C10.7314 9.37401 10.3618 9.04886 9.7222 9.02811C9.70798 9.02811 9.70088 9.0281 9.68666 9.02119C9.4166 8.95892 9.03994 9.07653 8.8907 8.88974C8.72013 8.6822 8.86227 8.32938 8.83384 8.03882C8.81252 7.83819 8.91202 7.78977 9.08258 7.77593C9.34553 7.75518 9.60849 7.7275 9.87144 7.69983C10.3405 7.6514 10.6816 7.42311 10.8309 6.98727C11.0725 6.29546 11.4207 5.67975 11.9253 5.14013C12.103 4.94643 12.1812 4.71813 12.1812 4.46216C12.1741 4.03324 11.9324 3.6735 11.7619 3.29992C11.6766 3.11313 11.6766 3.00936 11.8898 2.91943C12.1527 2.80874 12.4086 2.53201 12.636 2.5666C12.8279 2.59427 12.9913 2.94018 13.1406 3.16156C13.4888 3.68042 13.9508 3.87412 14.5904 3.73576C15.2158 3.5974 15.8483 3.63199 16.4737 3.76343C16.9641 3.8672 17.3549 3.71501 17.6605 3.33451C17.8382 3.11313 18.0088 2.89175 18.1722 2.65654C18.2646 2.51818 18.3428 2.51818 18.4778 2.60119C18.7266 2.76031 19.1032 2.85024 19.2098 3.06471C19.3235 3.293 19.0464 3.59048 18.9184 3.84645C18.6555 4.38606 18.7123 4.85649 19.1316 5.29925C19.5581 5.74893 19.8565 6.28162 20.0484 6.86274C20.2261 7.40235 20.5956 7.69983 21.1855 7.72059C21.1997 7.72059 21.2068 7.72058 21.2211 7.7275C22.1663 7.81744 22.1592 7.81744 22.1449 8.70296Z" fill="#FEE41B"/>
<path d="M13.2827 29.8378C13.2827 30.5157 12.8065 31 12.1669 30.9931C11.5415 30.9862 11.0867 30.5019 11.0725 29.8447C11.0511 28.7655 11.1293 27.6932 11.0227 26.6139C10.9445 25.8599 10.7171 25.1473 10.376 24.4693C9.36681 22.4562 8.35054 20.4499 7.34847 18.4437C7.20634 18.1531 7.01445 17.9525 6.65911 18.0009C6.26113 18.0562 6.07635 18.4367 6.24691 18.8587C6.70886 20.0279 7.17791 21.1971 7.64696 22.3593C7.74646 22.6084 7.7962 22.8505 7.73224 23.1134C7.60432 23.57 7.21344 23.8951 6.74439 23.9297C6.22559 23.9574 5.8134 23.7083 5.61441 23.2171C5.1951 22.1794 4.78291 21.1348 4.3636 20.0902C4.20725 19.7028 4.02958 19.3292 3.98694 18.9072C3.97273 18.7826 3.9443 18.6581 3.96562 18.5405C4.17172 17.316 3.93719 16.1053 3.85902 14.8878C3.78084 13.5872 3.66714 12.2935 3.48236 10.9998C3.43972 10.7161 3.33311 10.5155 3.02041 10.5294C2.70061 10.5432 2.60822 10.7646 2.60111 11.0413C2.54426 12.7016 2.48029 14.362 2.42344 16.0223C2.42344 16.1123 2.42344 16.2022 2.42344 16.2921H2.40923C2.35237 17.8487 2.29552 19.4122 2.22445 20.9688C2.1747 21.9857 2.50872 22.8505 3.2123 23.6046C4.22857 24.6907 5.21642 25.8045 6.2327 26.8907C6.53119 27.2089 6.66622 27.5548 6.652 27.9906C6.63068 28.6063 6.652 29.2221 6.6449 29.8447C6.63779 30.5227 6.16874 31.0069 5.52202 31C4.89662 30.9931 4.43467 30.5088 4.42757 29.8516C4.42757 29.4158 4.41335 28.973 4.43467 28.5372C4.44178 28.2881 4.37071 28.0944 4.19304 27.9076C3.27626 26.9252 2.3808 25.936 1.47112 24.9467C0.440634 23.8329 -0.0497379 22.5323 0.00711678 21.0379C0.13504 17.655 0.255856 14.2651 0.397993 10.8753C0.454847 9.45705 1.5493 8.39858 2.94224 8.36399C4.37782 8.3294 5.48648 9.30485 5.67837 10.73C5.89157 12.3557 6.00528 13.9884 6.14031 15.6211C6.15453 15.8148 6.17585 15.884 6.43169 15.8632C7.59721 15.7525 8.59928 16.1469 9.1394 17.1638C10.376 19.509 11.5841 21.8612 12.6786 24.2618C13.0979 25.1957 13.2614 26.1919 13.2756 27.2089C13.2898 28.0875 13.2827 28.9661 13.2827 29.8378Z" fill="#26ACE3"/>
<path d="M29.2801 25.2234C28.413 26.1089 27.6029 27.0428 26.7642 27.956C26.6221 28.1082 26.551 28.2535 26.5582 28.4611C26.5795 28.9176 26.5653 29.3812 26.5653 29.8378C26.5581 30.5157 26.0962 31 25.4495 31C24.8099 30.9931 24.355 30.5088 24.355 29.8239C24.355 29.1875 24.3621 28.5441 24.3479 27.9076C24.3408 27.5409 24.4616 27.2365 24.7175 26.9598C25.7622 25.8253 26.7998 24.6769 27.8516 23.5423C28.4983 22.8436 28.8181 22.0272 28.7826 21.0864C28.6547 17.8003 28.5338 14.5142 28.413 11.2281C28.4059 11.1243 28.3988 11.0274 28.3846 10.9237C28.3491 10.6815 28.214 10.5293 27.9582 10.5293C27.7023 10.5293 27.5744 10.6746 27.5318 10.9306C27.3683 12.0167 27.283 13.1167 27.1907 14.2098C27.0983 15.3305 27.0272 16.4443 26.9348 17.565C26.9206 17.738 26.9419 17.8971 26.9775 18.0632C27.0912 18.5682 27.0414 19.0663 26.8495 19.5505C26.3592 20.782 25.8759 22.0134 25.3784 23.2379C25.1865 23.7083 24.7672 23.9574 24.2697 23.9297C23.8149 23.9089 23.424 23.6045 23.289 23.1618C23.2037 22.892 23.2535 22.636 23.353 22.3731C23.8149 21.2178 24.2769 20.0556 24.7388 18.9072C24.8383 18.665 24.888 18.4367 24.7033 18.2084C24.4119 17.8556 23.9073 17.9386 23.6728 18.4021C23.1469 19.4329 22.6281 20.4706 22.1164 21.5084C21.5336 22.6775 20.9011 23.819 20.3823 25.0158C20.0625 25.7492 19.9275 26.5171 19.9204 27.3126C19.9133 28.1567 19.9204 28.9937 19.9204 29.8378C19.9204 30.5157 19.4513 31 18.8046 31C18.1792 30.9931 17.703 30.5157 17.7101 29.8585C17.7244 28.7378 17.6533 27.617 17.7599 26.4963C17.8594 25.4448 18.165 24.4555 18.6411 23.5146C19.6503 21.5084 20.6595 19.4952 21.6686 17.489C22.2656 16.306 23.3103 15.7456 24.6535 15.8978C24.888 15.9255 24.8383 15.8009 24.8454 15.6902C24.9378 14.6525 25.016 13.6079 25.1155 12.5702C25.1865 11.8438 25.2363 11.1174 25.3855 10.3979C25.6485 9.14572 26.8353 8.28788 28.1714 8.38473C29.4577 8.47467 30.5238 9.49163 30.5877 10.7438C30.6801 12.5563 30.737 14.3758 30.808 16.1953H30.8009C30.8578 17.6619 30.8862 19.1355 30.9857 20.6021C31.0994 22.387 30.5593 23.9159 29.2801 25.2234Z" fill="#26ACE3"/>
<path d="M15.4785 5.14013C13.6521 5.14705 12.1667 6.60677 12.1739 8.38472C12.181 10.1558 13.6876 11.6086 15.507 11.6016C17.3334 11.5947 18.8187 10.135 18.8116 8.35705C18.8045 6.5791 17.305 5.13321 15.4785 5.14013ZM15.4856 9.45011C14.8887 9.44319 14.3912 8.96584 14.3912 8.38472C14.3841 7.78976 14.8887 7.29858 15.507 7.29858C16.1039 7.3055 16.6014 7.78284 16.6085 8.36397C16.6085 8.95892 16.0968 9.45011 15.4856 9.45011Z" fill="#26ACE3"/>
</g>
<defs>
<clipPath id="clip0_128_572">
<rect width="31" height="31" fill="white"/>
</clipPath>
</defs>
</svg>
