<svg width="31" height="32" viewBox="0 0 31 32" fill="none" xmlns="http://www.w3.org/2000/svg">
<path d="M30.9427 8.22363C30.8695 7.82449 30.5832 7.59052 30.2436 7.41159C29.0718 6.81288 27.9 6.20729 26.7282 5.6017C23.266 3.81245 19.8038 2.03697 16.3482 0.233957C15.7623 -0.0757203 15.2563 -0.0688386 14.6638 0.233957C10.0497 2.63568 5.42234 5.01675 0.801637 7.40471C0.13583 7.7488 -0.137151 8.34751 0.0692488 8.98751C0.189094 9.37288 0.462075 9.59998 0.801637 9.77202C2.05336 10.412 3.30507 11.0658 4.56345 11.7127L5.36908 12.1325L8.92449 13.9768C10.8686 14.9746 12.8061 15.9656 14.737 16.9841C15.263 17.2593 15.729 17.2731 16.255 16.9909C18.2125 15.9587 20.1766 14.9608 22.1341 13.9423C22.2207 13.9011 22.3006 13.8529 22.3805 13.8116C22.3938 13.8047 22.4071 13.7978 22.4138 13.7909L25.6962 12.098L26.5817 11.6438C27.7735 11.0245 28.9653 10.412 30.1571 9.79267C30.8762 9.43482 31.0892 9.02191 30.9427 8.22363ZM26.7748 8.76041C23.1062 10.6529 19.4376 12.5522 15.769 14.4516C15.6025 14.5342 15.4694 14.5686 15.2896 14.4722C11.5877 12.5522 7.88583 10.6391 4.17728 8.726C4.11736 8.69159 4.05744 8.65718 3.93759 8.58837C4.65 8.21675 5.3025 7.87955 5.95499 7.54234C9.04434 5.94579 12.1403 4.34923 15.2297 2.75267C15.4028 2.6632 15.5426 2.62191 15.7357 2.72514C19.4243 4.64514 23.1195 6.55138 26.8147 8.46449C26.8813 8.4989 26.9479 8.54019 27.0478 8.60213C26.9412 8.65718 26.8613 8.71224 26.7748 8.76041Z" fill="#26ACE3"/>
<path d="M30.2105 17.1699C29.1585 17.7067 28.1065 18.2503 27.0545 18.794L22.4538 21.175H22.4472C22.4272 21.1819 22.4139 21.1888 22.3939 21.2026C22.2141 21.292 22.041 21.3884 21.8612 21.4778C19.9837 22.4482 18.1061 23.4116 16.2352 24.3888C15.7292 24.6572 15.2764 24.6434 14.7704 24.3819C13.4121 23.6662 12.0472 22.9643 10.689 22.2624L10.1963 22.0077C9.69028 21.7462 9.17761 21.4778 8.6716 21.2163C8.64497 21.2026 8.61833 21.1888 8.5917 21.1819H8.58504L5.36253 19.5165L5.32924 19.4959L5.29595 19.4753L2.09342 17.8236C1.66064 17.6034 1.23453 17.3832 0.801752 17.163C0.468849 16.9978 0.202526 16.7707 0.0760222 16.406C-0.143694 15.7729 0.122629 15.1467 0.748488 14.8232C2.04681 14.1488 3.33848 13.4813 4.6368 12.8138C4.86318 12.6968 5.08955 12.5798 5.32259 12.4628C5.4158 12.4146 5.50235 12.3596 5.63551 12.2907C5.52899 12.2288 5.44243 12.1875 5.36919 12.1462L8.9246 13.9905C8.82473 13.9424 8.72486 13.8873 8.63165 13.8391C8.5118 13.7772 8.32538 13.729 8.21885 13.7841C7.97916 13.9079 7.73281 14.0318 7.49312 14.1488C6.32795 14.7338 5.15613 15.3462 3.94436 15.9725C4.06421 16.0413 4.13079 16.0826 4.20403 16.117C7.89926 18.0301 11.5945 19.9363 15.2831 21.8495C15.4562 21.9389 15.5893 21.932 15.7624 21.8426C19.4444 19.9295 23.1329 18.0301 26.8149 16.1239C26.8881 16.0826 26.9613 16.0344 27.0612 15.9725C26.9347 15.9036 26.8548 15.8486 26.7616 15.8073C25.896 15.36 25.0238 14.9127 24.1583 14.4654C23.7455 14.252 23.3327 14.0387 22.9265 13.8254C22.7468 13.729 22.6069 13.729 22.4338 13.8047L25.7163 12.1118C25.6231 12.16 25.5298 12.2219 25.4033 12.2907C25.5365 12.3664 25.6231 12.4215 25.7229 12.4697C26.1024 12.6624 26.4753 12.8619 26.8548 13.0546C27.9734 13.6327 29.0919 14.2107 30.2105 14.7888C30.6499 15.0159 30.9495 15.3118 30.9695 15.883C30.9895 16.5092 30.7431 16.9015 30.2105 17.1699Z" fill="#FEE41B"/>
<path d="M30.2503 24.5333C27.9467 25.7307 25.6363 26.9213 23.3326 28.1118C20.8092 29.4124 18.2791 30.7062 15.7557 32H15.2697C15.1232 31.9311 14.9767 31.8692 14.8302 31.7935C13.1058 30.9058 11.388 30.0111 9.67024 29.1234C6.72071 27.6025 3.77784 26.0748 0.828311 24.5539C0.502065 24.3819 0.229084 24.1686 0.0959226 23.8038C-0.13711 23.1776 0.115897 22.5307 0.741756 22.2073C2.04674 21.526 3.35838 20.8516 4.67002 20.1772C4.88974 20.0602 5.11611 19.9501 5.33583 19.8331C5.42904 19.7849 5.5156 19.7299 5.6421 19.6542C5.52891 19.5922 5.44236 19.5441 5.36912 19.5028L8.59163 21.1681C8.41852 21.0993 8.2787 21.0993 8.09227 21.2025C7.89919 21.3058 7.7061 21.409 7.51302 21.5053C6.41444 22.0834 5.32917 22.6408 4.2439 23.1982C4.15735 23.2395 4.07745 23.2946 3.96426 23.3634C4.07745 23.4322 4.15069 23.4735 4.23059 23.5148C7.90585 25.4142 11.5811 27.3135 15.2564 29.2198C15.4494 29.323 15.5959 29.3092 15.789 29.2129C18.7119 27.692 21.6415 26.1849 24.571 24.6709C25.39 24.2511 26.2089 23.8245 27.0811 23.3703C26.9346 23.2877 26.8481 23.2395 26.7615 23.1914C25.7628 22.6752 24.7574 22.1591 23.7587 21.643C23.4791 21.4985 23.1994 21.3539 22.9198 21.2025C22.7467 21.1131 22.6135 21.1062 22.4471 21.175L27.0478 18.7939C26.5951 19.0279 26.1423 19.2619 25.6896 19.4959C25.5964 19.5441 25.5098 19.5991 25.3833 19.6748C25.5298 19.7574 25.6296 19.8056 25.7295 19.8606C25.8693 19.9294 26.0092 20.0051 26.1423 20.0739C27.4939 20.769 28.8388 21.4641 30.1838 22.1729C30.3835 22.2761 30.5899 22.4137 30.7364 22.5927C31.2357 23.2051 30.9894 24.1479 30.2503 24.5333Z" fill="#26ACE3"/>
</svg>
