<svg width="35" height="35" viewBox="0 0 35 35" fill="none" xmlns="http://www.w3.org/2000/svg">
<g clip-path="url(#clip0_128_461)">
<path d="M35 0H0V35H35V0Z" fill="#B0B0B0"/>
<path d="M6.23808 22.3611C5.99061 22.3611 5.78026 22.2787 5.60702 22.1137C5.43379 21.9445 5.34717 21.7437 5.34717 21.5111C5.34717 21.2742 5.43379 21.0713 5.60702 20.9021C5.78026 20.733 5.99061 20.6484 6.23808 20.6484C6.48968 20.6484 6.7021 20.733 6.87533 20.9021C7.05269 21.0713 7.14137 21.2742 7.14137 21.5111C7.14137 21.7437 7.05269 21.9445 6.87533 22.1137C6.7021 22.2787 6.48968 22.3611 6.23808 22.3611Z" fill="white"/>
<path d="M16.1312 22.2215H14.5226L10.2846 15.5355C10.1774 15.3664 10.0887 15.1908 10.0186 15.009H9.98143C10.0144 15.2036 10.0309 15.6201 10.0309 16.2587V22.2215H8.60791V13.125H10.3217L14.4175 19.6524C14.5907 19.9231 14.7021 20.1092 14.7516 20.2107H14.7763C14.7351 19.9697 14.7144 19.5615 14.7144 18.9863V13.125H16.1312V22.2215Z" fill="white"/>
<path d="M23.0608 22.2215H18.0803V13.125H22.8628V14.4064H19.5529V16.9818H22.603V18.2569H19.5529V20.9465H23.0608V22.2215Z" fill="white"/>
<path d="M30.1388 14.4064H27.5898V22.2215H26.1173V14.4064H23.5745V13.125H30.1388V14.4064Z" fill="white"/>
</g>
<defs>
<clipPath id="clip0_128_461">
<rect width="35" height="35" fill="white"/>
</clipPath>
</defs>
</svg>
