<svg width="31" height="37" viewBox="0 0 31 37" fill="none" xmlns="http://www.w3.org/2000/svg">
<g clip-path="url(#clip0_128_551)">
<path d="M31 35.4932C31 36.2944 30.5631 36.7501 29.8755 37H1.13886C0.315157 36.7133 0 36.1253 0 35.2433C0.0143253 28.6798 0.00716266 22.1162 0.00716266 15.5526C0.00716266 14.4281 0.544362 13.8768 1.65457 13.8768C3.94663 13.8768 6.23151 13.8768 8.52357 13.8768C9.10374 13.8768 9.54783 14.1341 9.80568 14.6706C10.0564 15.1851 10.0206 15.6996 9.69108 16.17C9.39741 16.589 8.98198 16.7727 8.47343 16.7727C6.70425 16.7654 4.92791 16.7801 3.15873 16.7654C2.87223 16.7654 2.82209 16.8536 2.82209 17.1255C2.82925 22.6748 2.82925 28.2314 2.82209 33.7807C2.82209 34.0673 2.89372 34.1261 3.1659 34.1261C11.3958 34.1188 19.6185 34.1188 27.8484 34.1261C28.1206 34.1261 28.1922 34.06 28.1922 33.7807C28.1851 28.2314 28.1851 22.6748 28.1922 17.1255C28.1922 16.8536 28.1421 16.7654 27.8556 16.7654C26.0578 16.7801 24.2671 16.7801 22.4693 16.7727C21.7817 16.7727 21.2015 16.2803 21.0797 15.6261C20.9508 14.9279 21.3089 14.2443 21.9464 13.9871C22.1326 13.9136 22.326 13.8842 22.5337 13.8842C24.8688 13.8842 27.2038 13.8842 29.5388 13.8842C30.4055 13.8842 31.0072 14.4942 31.0072 15.3762C31 22.0795 31 28.79 31 35.4932Z" fill="#26ACE3"/>
<path d="M25.3631 1.55821C25.3488 3.67502 24.6182 5.54927 23.4936 7.28388C22.541 8.76858 21.3735 10.0695 20.2561 11.4146C19.2104 12.6714 18.1789 13.9283 17.5128 15.4571C17.3338 15.8687 17.169 16.2877 17.0974 16.7654C17.5128 16.7654 17.9139 16.7581 18.315 16.7654C19.1173 16.7801 19.7261 17.4049 19.7332 18.206C19.7332 19.0072 19.1244 19.6466 18.3294 19.654C16.4527 19.6613 14.5761 19.6613 12.6995 19.654C11.8973 19.6466 11.2885 19.0072 11.2885 18.2134C11.2885 17.4122 11.8973 16.7875 12.6995 16.7728C13.029 16.7654 13.3585 16.7581 13.688 16.7728C13.9172 16.7875 13.9386 16.7066 13.8813 16.5082C13.6521 15.707 13.3083 14.9573 12.8786 14.2517C12.0334 12.8625 10.9733 11.6645 9.94188 10.4297C8.80302 9.06993 7.67848 7.70283 6.84761 6.10787C6.08837 4.67462 5.65145 3.16052 5.64429 1.52146C5.64429 0.646809 6.23879 6.98102e-06 7.04817 6.98102e-06C7.84322 6.98102e-06 8.45205 0.624759 8.45921 1.47736C8.4807 3.32957 9.26859 4.88042 10.3 6.32837C11.3458 7.78368 12.5634 9.09198 13.6736 10.4885C14.3254 11.3043 14.9414 12.1569 15.5001 13.1271C16.7464 10.9515 18.4368 9.22428 19.941 7.32798C20.8291 6.20342 21.66 5.04212 22.1471 3.66767C22.3906 2.96941 22.5267 2.25646 22.541 1.52146C22.5625 0.617409 23.1642 -0.0146931 23.9879 6.98102e-06C24.7901 0.014707 25.3703 0.668859 25.3631 1.55821Z" fill="#26ACE3"/>
<path d="M14.0962 24.064C14.0962 23.1599 13.5017 22.5499 12.6136 22.5499C10.7799 22.5425 8.95344 22.5425 7.1198 22.5499C6.23879 22.5499 5.64429 23.1599 5.64429 24.0713C5.63713 25.9529 5.63713 27.8272 5.64429 29.7088C5.64429 30.6128 6.23879 31.2155 7.12696 31.2229C8.04378 31.2302 8.9606 31.2229 9.87026 31.2229C10.7871 31.2229 11.7039 31.2302 12.6136 31.2229C13.4946 31.2155 14.0891 30.6128 14.0891 29.7014C14.0962 27.8198 14.0962 25.9382 14.0962 24.064ZM11.2741 26.9011C11.2741 27.3127 11.267 27.7169 11.2741 28.1285C11.2813 28.2829 11.2383 28.3343 11.0807 28.3343C10.2714 28.327 9.46199 28.327 8.65261 28.3343C8.50219 28.3343 8.45205 28.2976 8.45205 28.1359C8.45921 27.3053 8.45921 26.4748 8.45205 25.6442C8.45205 25.4899 8.48786 25.4384 8.64544 25.4384C9.45482 25.4458 10.2642 25.4458 11.0736 25.4384C11.267 25.4384 11.2741 25.5266 11.2741 25.6736C11.2741 26.0779 11.2741 26.4895 11.2741 26.9011Z" fill="#FFEC00"/>
<path d="M25.363 23.9905C25.363 24.8137 24.7398 25.4311 23.8875 25.4384C22.9707 25.4458 22.061 25.4384 21.1442 25.4384C20.2274 25.4384 19.3177 25.4458 18.4009 25.4384C17.5485 25.4311 16.9182 24.821 16.9182 23.9978C16.9182 23.1746 17.5414 22.5572 18.3937 22.5499C20.2274 22.5425 22.0538 22.5425 23.8803 22.5499C24.7398 22.5499 25.363 23.1673 25.363 23.9905Z" fill="#FFEC00"/>
<path d="M25.3631 29.7602C25.3702 30.5981 24.7399 31.2155 23.8589 31.2155C22.9564 31.2229 22.0539 31.2155 21.1514 31.2155C20.2346 31.2155 19.3178 31.2155 18.4081 31.2155C17.5486 31.2082 16.9183 30.6055 16.9183 29.7823C16.9111 28.937 17.5414 28.327 18.4224 28.327C20.2417 28.327 22.0611 28.327 23.8732 28.327C24.7327 28.3343 25.3559 28.937 25.3631 29.7602Z" fill="#26ACE3"/>
</g>
<defs>
<clipPath id="clip0_128_551">
<rect width="31" height="37" fill="white"/>
</clipPath>
</defs>
</svg>
